<svg width="54" height="54" viewBox="0 0 54 54" fill="none" xmlns="http://www.w3.org/2000/svg">
<g clip-path="url(#clip0_1_7063)">
<path d="M28.5124 52.0248C35.4228 52.0248 41.0248 46.4228 41.0248 39.5124C41.0248 32.602 35.4228 27 28.5124 27C21.602 27 16 32.602 16 39.5124C16 46.4228 21.602 52.0248 28.5124 52.0248Z" fill="#B8FB63"/>
<path d="M19.5539 45.5626H10.125C9.67746 45.5626 9.24824 45.3848 8.93177 45.0683C8.6153 44.7518 8.43751 44.3226 8.43751 43.8751V34.4462C8.43674 34.227 8.4792 34.0099 8.56245 33.8072C8.6457 33.6045 8.76811 33.4202 8.92267 33.2649L34.2352 7.9524C34.3922 7.79296 34.5794 7.66634 34.7858 7.57991C34.9922 7.49348 35.2137 7.44897 35.4375 7.44897C35.6613 7.44897 35.8828 7.49348 36.0893 7.57991C36.2957 7.66634 36.4828 7.79296 36.6399 7.9524L46.0477 17.3602C46.2071 17.5172 46.3337 17.7044 46.4202 17.9108C46.5066 18.1172 46.5511 18.3388 46.5511 18.5626C46.5511 18.7863 46.5066 19.0079 46.4202 19.2143C46.3337 19.4207 46.2071 19.6079 46.0477 19.7649L20.7352 45.0774C20.5798 45.232 20.3956 45.3544 20.1929 45.4376C19.9902 45.5209 19.773 45.5633 19.5539 45.5626V45.5626Z" stroke="#2E2E2E" stroke-width="3.375" stroke-linecap="round" stroke-linejoin="round"/>
<path d="M28.6875 13.5L40.5 25.3125" stroke="#2E2E2E" stroke-width="3.375" stroke-linecap="round" stroke-linejoin="round"/>
</g>
<defs>
<clipPath id="clip0_1_7063">
<rect width="54" height="54" fill="white"/>
</clipPath>
</defs>
</svg>
