<svg width="70" height="59" viewBox="0 0 70 59" fill="none" xmlns="http://www.w3.org/2000/svg">
<path d="M52.1067 53.0248C58.7931 53.0248 64.2135 47.4228 64.2135 40.5124C64.2135 33.602 58.7931 28 52.1067 28C45.4204 28 40 33.602 40 40.5124C40 47.4228 45.4204 53.0248 52.1067 53.0248Z" fill="#CA63FB"/>
<path d="M22.125 27.6562C32.3078 27.6562 40.5625 23.9416 40.5625 19.3594C40.5625 14.7771 32.3078 11.0625 22.125 11.0625C11.9422 11.0625 3.6875 14.7771 3.6875 19.3594C3.6875 23.9416 11.9422 27.6562 22.125 27.6562Z" stroke="#2E2E2E" stroke-width="3.6875" stroke-linecap="round" stroke-linejoin="round"/>
<path d="M3.6875 19.3594V28.5781C3.6875 33.1645 11.9383 36.875 22.125 36.875C32.3117 36.875 40.5625 33.1645 40.5625 28.5781V19.3594" stroke="#2E2E2E" stroke-width="3.6875" stroke-linecap="round" stroke-linejoin="round"/>
<path d="M14.75 26.9648V36.1836" stroke="#2E2E2E" stroke-width="3.6875" stroke-linecap="round" stroke-linejoin="round"/>
<path d="M40.5625 22.2864C48.9746 23.07 55.3125 26.4118 55.3125 30.4219C55.3125 35.0083 47.0617 38.7188 36.875 38.7188C32.3578 38.7188 28.2094 37.9813 25.0059 36.7829" stroke="#2E2E2E" stroke-width="3.6875" stroke-linecap="round" stroke-linejoin="round"/>
<path d="M18.4375 36.7137V39.6406C18.4375 44.227 26.6883 47.9375 36.875 47.9375C47.0617 47.9375 55.3125 44.227 55.3125 39.6406V30.4219" stroke="#2E2E2E" stroke-width="3.6875" stroke-linecap="round" stroke-linejoin="round"/>
<path d="M44.25 38.0273V47.2461" stroke="#2E2E2E" stroke-width="3.6875" stroke-linecap="round" stroke-linejoin="round"/>
<path d="M29.5 26.9648V47.2461" stroke="#2E2E2E" stroke-width="3.6875" stroke-linecap="round" stroke-linejoin="round"/>
</svg>
