<svg width="57" height="57" viewBox="0 0 57 57" fill="none" xmlns="http://www.w3.org/2000/svg">
<g clip-path="url(#clip0_1_18045)">
<path d="M45.25 56.5C51.4632 56.5 56.5 51.4632 56.5 45.25C56.5 39.0368 51.4632 34 45.25 34C39.0368 34 34 39.0368 34 45.25C34 51.4632 39.0368 56.5 45.25 56.5Z" fill="#61A3F2"/>
<path d="M24.7356 40.637H7.06735C6.13016 40.637 5.23136 40.2647 4.56867 39.602C3.90599 38.9393 3.53369 38.0405 3.53369 37.1033V21.2019C3.53369 20.2647 3.90599 19.3659 4.56867 18.7032C5.23136 18.0405 6.13016 17.6682 7.06735 17.6682H24.7356" stroke="#2E2E2E" stroke-width="2.65024" stroke-linecap="round" stroke-linejoin="round"/>
<path d="M24.7356 47.7043H14.1346" stroke="#2E2E2E" stroke-width="2.65024" stroke-linecap="round" stroke-linejoin="round"/>
<path d="M45.9375 15.9014H38.8702" stroke="#2E2E2E" stroke-width="2.65024" stroke-linecap="round" stroke-linejoin="round"/>
<path d="M45.9375 22.9688H38.8702" stroke="#2E2E2E" stroke-width="2.65024" stroke-linecap="round" stroke-linejoin="round"/>
<path d="M51.238 8.83423H33.5697C32.5939 8.83423 31.8029 9.62526 31.8029 10.6011V45.9376C31.8029 46.9134 32.5939 47.7044 33.5697 47.7044H51.238C52.2137 47.7044 53.0048 46.9134 53.0048 45.9376V10.6011C53.0048 9.62526 52.2137 8.83423 51.238 8.83423Z" stroke="#2E2E2E" stroke-width="2.65024" stroke-linecap="round" stroke-linejoin="round"/>
<path d="M19.4351 40.637V47.7043" stroke="#2E2E2E" stroke-width="2.65024" stroke-linecap="round" stroke-linejoin="round"/>
<path d="M42.4038 41.9621C43.6236 41.9621 44.6124 40.9733 44.6124 39.7536C44.6124 38.5338 43.6236 37.545 42.4038 37.545C41.1841 37.545 40.1953 38.5338 40.1953 39.7536C40.1953 40.9733 41.1841 41.9621 42.4038 41.9621Z" fill="#2E2E2E"/>
</g>
<defs>
<clipPath id="clip0_1_18045">
<rect width="56.5385" height="56.5385" fill="white"/>
</clipPath>
</defs>
</svg>
