<svg width="63" height="63" viewBox="0 0 63 63" fill="none" xmlns="http://www.w3.org/2000/svg">
<g clip-path="url(#clip0_1_7077)">
<path d="M51.25 59.5C57.4632 59.5 62.5 54.4632 62.5 48.25C62.5 42.0368 57.4632 37 51.25 37C45.0368 37 40 42.0368 40 48.25C40 54.4632 45.0368 59.5 51.25 59.5Z" fill="#FFC947"/>
<path d="M51.6904 51.6857C55.9191 47.457 50.3096 34.9916 39.1614 23.8434C28.0132 12.6951 15.5477 7.08566 11.3191 11.3143C7.09042 15.543 12.6999 28.0084 23.8481 39.1566C34.9964 50.3049 47.4618 55.9143 51.6904 51.6857Z" stroke="#2E2E2E" stroke-width="2.95312" stroke-linecap="round" stroke-linejoin="round"/>
<path d="M39.1614 39.1566C50.3096 28.0084 55.9191 15.543 51.6904 11.3143C47.4618 7.08567 34.9964 12.6951 23.8481 23.8434C12.6999 34.9916 7.09042 47.457 11.3191 51.6857C15.5477 55.9143 28.0132 50.3049 39.1614 39.1566Z" stroke="#2E2E2E" stroke-width="2.95312" stroke-linecap="round" stroke-linejoin="round"/>
<path d="M31.5 33.9609C32.8591 33.9609 33.9609 32.8591 33.9609 31.5C33.9609 30.1409 32.8591 29.0391 31.5 29.0391C30.1409 29.0391 29.0391 30.1409 29.0391 31.5C29.0391 32.8591 30.1409 33.9609 31.5 33.9609Z" fill="#2E2E2E"/>
</g>
<defs>
<clipPath id="clip0_1_7077">
<rect width="63" height="63" fill="white"/>
</clipPath>
</defs>
</svg>
