<svg width="57" height="57" viewBox="0 0 57 57" fill="none" xmlns="http://www.w3.org/2000/svg">
<g clip-path="url(#clip0_1_18056)">
<path d="M45.25 53.5C51.4632 53.5 56.5 48.4632 56.5 42.25C56.5 36.0368 51.4632 31 45.25 31C39.0368 31 34 36.0368 34 42.25C34 48.4632 39.0368 53.5 45.25 53.5Z" fill="#FFC947"/>
<path d="M46.3888 46.384C50.1837 42.5891 45.1496 31.4022 35.1448 21.3973C25.14 11.3925 13.953 6.35838 10.1581 10.1533C6.36315 13.9483 11.3973 25.1352 21.4021 35.14C31.4069 45.1449 42.5939 50.179 46.3888 46.384Z" stroke="#2E2E2E" stroke-width="2.65024" stroke-linecap="round" stroke-linejoin="round"/>
<path d="M35.1448 35.1404C45.1496 25.1356 50.1837 13.9486 46.3888 10.1537C42.5939 6.35874 31.4069 11.3929 21.4021 21.3977C11.3973 31.4025 6.36315 42.5895 10.1581 46.3844C13.953 50.1793 25.14 45.1452 35.1448 35.1404Z" stroke="#2E2E2E" stroke-width="2.65024" stroke-linecap="round" stroke-linejoin="round"/>
<path d="M28.2692 30.4774C29.4889 30.4774 30.4777 29.4886 30.4777 28.2688C30.4777 27.0491 29.4889 26.0603 28.2692 26.0603C27.0495 26.0603 26.0607 27.0491 26.0607 28.2688C26.0607 29.4886 27.0495 30.4774 28.2692 30.4774Z" fill="#2E2E2E"/>
</g>
<defs>
<clipPath id="clip0_1_18056">
<rect width="56.5385" height="56.5385" fill="white"/>
</clipPath>
</defs>
</svg>
