<svg width="57" height="57" viewBox="0 0 57 57" fill="none" xmlns="http://www.w3.org/2000/svg">
<g clip-path="url(#clip0_1_18029)">
<path d="M43.8307 54.7335C49.977 54.7335 54.9595 49.7509 54.9595 43.6047C54.9595 37.4584 49.977 32.4758 43.8307 32.4758C37.6844 32.4758 32.7019 37.4584 32.7019 43.6047C32.7019 49.7509 37.6844 54.7335 43.8307 54.7335Z" fill="#FB6A63"/>
<path d="M46.2101 9.21167H11.189C10.222 9.21167 9.43799 9.99564 9.43799 10.9627V45.9838C9.43799 46.9508 10.222 47.7348 11.189 47.7348H46.2101C47.1772 47.7348 47.9611 46.9508 47.9611 45.9838V10.9627C47.9611 9.99564 47.1772 9.21167 46.2101 9.21167Z" stroke="#2E2E2E" stroke-width="2.62658" stroke-linecap="round" stroke-linejoin="round"/>
<path d="M39.2058 5.70972V12.7139" stroke="#2E2E2E" stroke-width="2.62658" stroke-linecap="round" stroke-linejoin="round"/>
<path d="M18.1932 5.70972V12.7139" stroke="#2E2E2E" stroke-width="2.62658" stroke-linecap="round" stroke-linejoin="round"/>
<path d="M9.43799 19.718H47.9611" stroke="#2E2E2E" stroke-width="2.62658" stroke-linecap="round" stroke-linejoin="round"/>
<path d="M36.5793 28.4734L26.3575 38.1042L20.8198 32.851" stroke="#2E2E2E" stroke-width="2.62658" stroke-linecap="round" stroke-linejoin="round"/>
</g>
<defs>
<clipPath id="clip0_1_18029">
<rect width="56.0337" height="56.0337" fill="white" transform="translate(0.682739 0.456787)"/>
</clipPath>
</defs>
</svg>
