<svg width="38" height="29" viewBox="0 0 38 29" fill="none" xmlns="http://www.w3.org/2000/svg">
<path d="M29.3406 17.5115C29.7595 17.5115 30.1615 17.4476 30.5617 17.3894C30.4321 17.8252 30.2987 18.2686 30.0845 18.6668C29.8704 19.2455 29.536 19.7471 29.2034 20.2524C28.9254 20.7991 28.4351 21.1692 28.0744 21.637C27.6968 22.0916 27.182 22.394 26.7744 22.7716C26.3742 23.1661 25.8501 23.3634 25.433 23.6414C24.9972 23.8913 24.6177 24.1675 24.2119 24.299L23.1994 24.716L22.3089 25.0861L23.22 28.7269L24.3416 28.4563C24.7004 28.3662 25.1381 28.261 25.6359 28.1351C26.145 28.0412 26.688 27.7838 27.2929 27.549C27.8903 27.2822 28.5816 27.1019 29.2241 26.6735C29.8704 26.264 30.6162 25.9221 31.2737 25.3735C31.9105 24.8081 32.6789 24.3177 33.2462 23.5982C33.8662 22.9257 34.4786 22.2193 34.9539 21.4153C35.5043 20.6488 35.8782 19.8072 36.2727 18.9749C36.6296 18.1427 36.9171 17.2917 37.1519 16.4651C37.5971 14.8082 37.7963 13.2339 37.8733 11.8869C37.9371 10.5381 37.8996 9.41652 37.8207 8.60495C37.7925 8.22171 37.7399 7.84975 37.7023 7.59238L37.6554 7.27677L37.6065 7.28804C37.2724 5.72722 36.5032 4.2929 35.3879 3.15098C34.2727 2.00906 32.8569 1.2062 31.3044 0.835301C29.7519 0.464399 28.1262 0.540598 26.6152 1.05508C25.1042 1.56957 23.7697 2.50132 22.7661 3.74255C21.7626 4.98378 21.1309 6.48376 20.9442 8.06899C20.7576 9.65421 21.0235 11.2599 21.7113 12.7003C22.399 14.1407 23.4805 15.357 24.8307 16.2084C26.1808 17.0598 27.7444 17.5116 29.3406 17.5115ZM8.67575 17.5115C9.09468 17.5115 9.49671 17.4476 9.89685 17.3894C9.76723 17.8252 9.63385 18.2686 9.41968 18.6668C9.20552 19.2455 8.87113 19.7471 8.53861 20.2524C8.26057 20.7991 7.77025 21.1692 7.40956 21.637C7.03196 22.0916 6.51722 22.394 6.10955 22.7716C5.70941 23.1661 5.18527 23.3634 4.76822 23.6414C4.33238 23.8913 3.9529 24.1675 3.54712 24.299L2.53454 24.716L1.64407 25.0861L2.5552 28.7269L3.67674 28.4563C4.03556 28.3662 4.47328 28.261 4.97111 28.1351C5.48022 28.0412 6.02314 27.7838 6.62805 27.549C7.22358 27.2803 7.91679 27.1019 8.55927 26.6717C9.20552 26.2621 9.95133 25.9202 10.6088 25.3716C11.2457 24.8062 12.0141 24.3159 12.5814 23.5982C13.2013 22.9257 13.8138 22.2193 14.2891 21.4153C14.8395 20.6488 15.2134 19.8072 15.6079 18.9749C15.9648 18.1427 16.2522 17.2917 16.4871 16.4651C16.9323 14.8082 17.1314 13.2339 17.2084 11.8869C17.2723 10.5381 17.2347 9.41652 17.1558 8.60495C17.1277 8.22171 17.0751 7.84975 17.0375 7.59238L16.9905 7.27677L16.9417 7.28804C16.6075 5.72722 15.8384 4.2929 14.7231 3.15098C13.6078 2.00906 12.1921 1.2062 10.6396 0.835301C9.0871 0.464399 7.46133 0.540598 5.95033 1.05508C4.43934 1.56957 3.10488 2.50132 2.10132 3.74255C1.09775 4.98378 0.466088 6.48376 0.279407 8.06899C0.0927264 9.65421 0.358652 11.2599 1.04642 12.7003C1.73419 14.1407 2.8157 15.357 4.16584 16.2084C5.51597 17.0598 7.07957 17.5116 8.67575 17.5115Z" fill="url(#paint0_linear_1_17974)"/>
<defs>
<linearGradient id="paint0_linear_1_17974" x1="37.9056" y1="28.7269" x2="-3.71774" y2="20.4762" gradientUnits="userSpaceOnUse">
<stop stop-color="#4568DC"/>
<stop offset="1" stop-color="#B06AB3"/>
</linearGradient>
</defs>
</svg>
