<svg width="38" height="29" viewBox="0 0 38 29" fill="none" xmlns="http://www.w3.org/2000/svg">
<path d="M29.3406 17.3193C29.7595 17.3193 30.1615 17.2554 30.5617 17.1972C30.4321 17.633 30.2987 18.0764 30.0845 18.4746C29.8704 19.0532 29.536 19.5548 29.2034 20.0602C28.9254 20.6069 28.4351 20.9769 28.0744 21.4447C27.6968 21.8993 27.182 22.2018 26.7744 22.5794C26.3742 22.9739 25.8501 23.1712 25.433 23.4492C24.9972 23.6991 24.6177 23.9752 24.2119 24.1067L23.1994 24.5238L22.3089 24.8939L23.22 28.5346L24.3416 28.2641C24.7004 28.1739 25.1381 28.0687 25.6359 27.9429C26.145 27.8489 26.688 27.5916 27.2929 27.3567C27.8903 27.09 28.5816 26.9096 29.2241 26.4813C29.8704 26.0718 30.6162 25.7299 31.2737 25.1813C31.9105 24.6158 32.6789 24.1255 33.2462 23.406C33.8662 22.7335 34.4786 22.0271 34.9539 21.223C35.5043 20.4566 35.8782 19.6149 36.2727 18.7827C36.6296 17.9505 36.9171 17.0995 37.1519 16.2729C37.5971 14.6159 37.7963 13.0416 37.8733 11.6947C37.9371 10.3458 37.8996 9.22429 37.8207 8.41272C37.7925 8.02948 37.7399 7.65752 37.7023 7.40015L37.6554 7.08454L37.6065 7.09581C37.2724 5.53499 36.5032 4.10067 35.3879 2.95875C34.2727 1.81682 32.8569 1.01397 31.3044 0.643071C29.7519 0.272168 28.1262 0.348368 26.6152 0.862854C25.1042 1.37734 23.7697 2.30909 22.7661 3.55032C21.7626 4.79155 21.1309 6.29153 20.9442 7.87676C20.7576 9.46198 21.0235 11.0677 21.7113 12.5081C22.399 13.9485 23.4805 15.1647 24.8307 16.0162C26.1808 16.8676 27.7444 17.3194 29.3406 17.3193ZM8.67575 17.3193C9.09468 17.3193 9.49671 17.2554 9.89685 17.1972C9.76723 17.633 9.63385 18.0764 9.41968 18.4746C9.20552 19.0532 8.87113 19.5548 8.53861 20.0602C8.26057 20.6069 7.77025 20.9769 7.40956 21.4447C7.03196 21.8993 6.51722 22.2018 6.10955 22.5794C5.70941 22.9739 5.18527 23.1712 4.76822 23.4492C4.33238 23.6991 3.9529 23.9752 3.54712 24.1067L2.53454 24.5238L1.64407 24.8939L2.5552 28.5346L3.67674 28.2641C4.03556 28.1739 4.47328 28.0687 4.97111 27.9429C5.48022 27.8489 6.02314 27.5916 6.62805 27.3567C7.22358 27.0881 7.91679 26.9096 8.55927 26.4794C9.20552 26.0699 9.95133 25.728 10.6088 25.1794C11.2457 24.614 12.0141 24.1236 12.5814 23.406C13.2013 22.7335 13.8138 22.0271 14.2891 21.223C14.8395 20.4566 15.2134 19.6149 15.6079 18.7827C15.9648 17.9505 16.2522 17.0995 16.4871 16.2729C16.9323 14.6159 17.1314 13.0416 17.2084 11.6947C17.2723 10.3458 17.2347 9.22429 17.1558 8.41272C17.1277 8.02948 17.0751 7.65752 17.0375 7.40015L16.9905 7.08454L16.9417 7.09581C16.6075 5.53499 15.8384 4.10067 14.7231 2.95875C13.6078 1.81682 12.1921 1.01397 10.6396 0.643071C9.0871 0.272168 7.46133 0.348368 5.95033 0.862854C4.43934 1.37734 3.10488 2.30909 2.10132 3.55032C1.09775 4.79155 0.466088 6.29153 0.279407 7.87676C0.0927264 9.46198 0.358652 11.0677 1.04642 12.5081C1.73419 13.9485 2.8157 15.1647 4.16584 16.0162C5.51597 16.8676 7.07957 17.3194 8.67575 17.3193Z" fill="url(#paint0_linear_1_17961)"/>
<defs>
<linearGradient id="paint0_linear_1_17961" x1="37.9056" y1="28.5346" x2="-3.71774" y2="20.284" gradientUnits="userSpaceOnUse">
<stop stop-color="#4568DC"/>
<stop offset="1" stop-color="#B06AB3"/>
</linearGradient>
</defs>
</svg>
