<svg width="38" height="29" viewBox="0 0 38 29" fill="none" xmlns="http://www.w3.org/2000/svg">
<path d="M29.3406 17.1273C29.7595 17.1273 30.1615 17.0635 30.5617 17.0052C30.4321 17.4411 30.2987 17.8844 30.0845 18.2827C29.8704 18.8613 29.536 19.3629 29.2034 19.8682C28.9254 20.4149 28.4351 20.785 28.0744 21.2528C27.6968 21.7074 27.182 22.0099 26.7744 22.3875C26.3742 22.782 25.8501 22.9792 25.433 23.2573C24.9972 23.5071 24.6177 23.7833 24.2119 23.9148L23.1994 24.3319L22.3089 24.7019L23.22 28.3427L24.3416 28.0722C24.7004 27.982 25.1381 27.8768 25.6359 27.7509C26.145 27.657 26.688 27.3996 27.2929 27.1648C27.8903 26.8981 28.5816 26.7177 29.2241 26.2894C29.8704 25.8798 30.6162 25.5379 31.2737 24.9894C31.9105 24.4239 32.6789 23.9336 33.2462 23.2141C33.8662 22.5415 34.4786 21.8352 34.9539 21.0311C35.5043 20.2646 35.8782 19.423 36.2727 18.5908C36.6296 17.7586 36.9171 16.9075 37.1519 16.0809C37.5971 14.424 37.7963 12.8497 37.8733 11.5027C37.9371 10.1539 37.8996 9.03236 37.8207 8.2208C37.7925 7.83756 37.7399 7.46559 37.7023 7.20822L37.6554 6.89261L37.6065 6.90388C37.2724 5.34307 36.5032 3.90874 35.3879 2.76682C34.2727 1.6249 32.8569 0.822049 31.3044 0.451146C29.7519 0.0802433 28.1262 0.156443 26.6152 0.670929C25.1042 1.18541 23.7697 2.11717 22.7661 3.35839C21.7626 4.59962 21.1309 6.09961 20.9442 7.68483C20.7576 9.27006 21.0235 10.8757 21.7113 12.3162C22.399 13.7566 23.4805 14.9728 24.8307 15.8242C26.1808 16.6757 27.7444 17.1274 29.3406 17.1273ZM8.67575 17.1273C9.09468 17.1273 9.49671 17.0635 9.89685 17.0052C9.76723 17.4411 9.63385 17.8844 9.41968 18.2827C9.20552 18.8613 8.87113 19.3629 8.53861 19.8682C8.26057 20.4149 7.77025 20.785 7.40956 21.2528C7.03196 21.7074 6.51722 22.0099 6.10955 22.3875C5.70941 22.782 5.18527 22.9792 4.76822 23.2573C4.33238 23.5071 3.9529 23.7833 3.54712 23.9148L2.53454 24.3319L1.64407 24.7019L2.5552 28.3427L3.67674 28.0722C4.03556 27.982 4.47328 27.8768 4.97111 27.7509C5.48022 27.657 6.02314 27.3996 6.62805 27.1648C7.22358 26.8962 7.91679 26.7177 8.55927 26.2875C9.20552 25.878 9.95133 25.5361 10.6088 24.9875C11.2457 24.422 12.0141 23.9317 12.5814 23.2141C13.2013 22.5415 13.8138 21.8352 14.2891 21.0311C14.8395 20.2646 15.2134 19.423 15.6079 18.5908C15.9648 17.7586 16.2522 16.9075 16.4871 16.0809C16.9323 14.424 17.1314 12.8497 17.2084 11.5027C17.2723 10.1539 17.2347 9.03236 17.1558 8.2208C17.1277 7.83756 17.0751 7.46559 17.0375 7.20822L16.9905 6.89261L16.9417 6.90388C16.6075 5.34307 15.8384 3.90874 14.7231 2.76682C13.6078 1.6249 12.1921 0.822049 10.6396 0.451146C9.0871 0.0802433 7.46133 0.156443 5.95033 0.670929C4.43934 1.18541 3.10488 2.11717 2.10132 3.35839C1.09775 4.59962 0.466088 6.09961 0.279407 7.68483C0.0927264 9.27006 0.358652 10.8757 1.04642 12.3162C1.73419 13.7566 2.8157 14.9728 4.16584 15.8242C5.51597 16.6757 7.07957 17.1274 8.67575 17.1273Z" fill="url(#paint0_linear_1_17948)"/>
<defs>
<linearGradient id="paint0_linear_1_17948" x1="37.9056" y1="28.3427" x2="-3.71774" y2="20.092" gradientUnits="userSpaceOnUse">
<stop stop-color="#4568DC"/>
<stop offset="1" stop-color="#B06AB3"/>
</linearGradient>
</defs>
</svg>
